<svg xmlns="http://www.w3.org/2000/svg" viewBox="0 0 1920 5146"><defs><style>.cls-1{fill:#bddff2;}.cls-2{fill:#fff;}.cls-3{fill:#85c1d6;}</style></defs><title>background</title><g id="Calque_1" data-name="Calque 1"><rect class="cls-1" width="1920" height="5146"/></g><g id="Calque_2" data-name="Calque 2"><path class="cls-2" d="M271.25,186.6l96.9,52.22L256.64,299.21,271.25,186.6m0-5a5,5,0,0,0-5,4.36l-14.61,112.6a5,5,0,0,0,5,5.65,4.9,4.9,0,0,0,2.38-.61l111.51-60.38a5,5,0,0,0,0-8.8l-96.9-52.22a5,5,0,0,0-2.37-.6Z"/><path class="cls-3" d="M311.36,175.2l29.83-32.87a3.85,3.85,0,0,1,6.3.89L366,180.8a3.85,3.85,0,0,1-3.83,5.53l-48.34-4.72A3.85,3.85,0,0,1,311.36,175.2Z"/><path class="cls-3" d="M1676.45,392.91a3.89,3.89,0,0,1,1.9.5l36.44,20.68a3.84,3.84,0,0,1-.06,6.72l-42.64,23.27a3.8,3.8,0,0,1-1.84.48,3.86,3.86,0,0,1-3.81-4.39l6.2-43.95a3.84,3.84,0,0,1,3.81-3.31m0-5h0a8.89,8.89,0,0,0-8.76,7.61l-6.2,44a8.84,8.84,0,0,0,13,9l42.64-23.27a8.85,8.85,0,0,0,.13-15.46l-36.45-20.68a8.91,8.91,0,0,0-4.36-1.15Z"/><path class="cls-3" d="M265.6,580.22a3.82,3.82,0,0,1,3.59,2.46l15.16,39.06a3.85,3.85,0,0,1-3.56,5.24,3.68,3.68,0,0,1-.73-.07L232.31,618a3.84,3.84,0,0,1-1.9-6.6L263,581.24a3.82,3.82,0,0,1,2.6-1m0-5h0a8.86,8.86,0,0,0-6,2.35L227,607.7a8.85,8.85,0,0,0,4.38,15.19l47.75,8.93a8.31,8.31,0,0,0,1.65.16A8.85,8.85,0,0,0,289,619.93l-15.15-39.06a8.82,8.82,0,0,0-8.26-5.65Z"/><path class="cls-2" d="M1283.65,132.25l60.77,8.06h.31c4.57,0,5,5.6.63,9.81l-48.82,48.44a9.08,9.08,0,0,1-6,2.79,3.38,3.38,0,0,1-3.61-2.72l-12-56.5c-.86-4.06,4-9.63,8.67-9.87m.2-5-.47,0a14.85,14.85,0,0,0-10.58,6.05,12.28,12.28,0,0,0-2.71,9.86l12,56.5a8.32,8.32,0,0,0,8.5,6.68,14,14,0,0,0,9.47-4.19l0,0,0,0,48.8-48.42c4-3.89,5.56-9.07,3.9-13.19a8.41,8.41,0,0,0-8-5.19h0l-60.37-8-.46-.06Z"/><path class="cls-2" d="M1537.94,753.48h.19l38.25,8.94c3,.16,3.72,3.79,1.22,6.19l-27.2,27.11a4.63,4.63,0,0,1-3.17,1.38,2.77,2.77,0,0,1-2.79-2l-11-36.06c-.78-2.53,1.76-5.61,4.55-5.61m0-5h0a9.81,9.81,0,0,0-7.79,4.08,9,9,0,0,0-1.54,8l11.05,36.05a7.72,7.72,0,0,0,7.57,5.49,9.59,9.59,0,0,0,6.64-2.77l0,0,0,0,27.17-27.08a9.18,9.18,0,0,0,2.5-9.73,7.66,7.66,0,0,0-6.42-5l-37.91-8.87-.43-.1-.45,0Z"/><path class="cls-3" d="M1734.6,764.22a3.82,3.82,0,0,1,3.59,2.46l15.16,39.06a3.85,3.85,0,0,1-3.56,5.24,3.68,3.68,0,0,1-.73-.07L1701.31,802a3.84,3.84,0,0,1-1.9-6.6L1732,765.24a3.82,3.82,0,0,1,2.6-1m0-5h0a8.86,8.86,0,0,0-6,2.35L1696,791.7a8.85,8.85,0,0,0,4.38,15.19l47.75,8.93a8.31,8.31,0,0,0,1.65.16,8.85,8.85,0,0,0,8.22-12.05l-15.15-39.06a8.82,8.82,0,0,0-8.26-5.65Z"/><path class="cls-2" d="M215.94,1115.48h.19l38.25,8.94c3,.16,3.72,3.79,1.22,6.19l-27.2,27.11a4.63,4.63,0,0,1-3.17,1.38,2.77,2.77,0,0,1-2.79-1.95l-11.05-36.06c-.78-2.53,1.76-5.61,4.55-5.61m0-5h0a9.81,9.81,0,0,0-7.79,4.08,9,9,0,0,0-1.54,8l11,36a7.72,7.72,0,0,0,7.57,5.49,9.59,9.59,0,0,0,6.64-2.77l0,0,0,0,27.17-27.08a9.18,9.18,0,0,0,2.5-9.73,7.66,7.66,0,0,0-6.42-5l-37.91-8.87-.43-.1-.45,0Z"/><path class="cls-2" d="M1466.65,1167.25l60.77,8.06h.31c4.57,0,5,5.6.63,9.81l-48.82,48.44a9.08,9.08,0,0,1-6,2.79,3.38,3.38,0,0,1-3.61-2.72l-12-56.5c-.86-4.06,4-9.63,8.67-9.87m.2-5-.47,0a14.85,14.85,0,0,0-10.58,6,12.28,12.28,0,0,0-2.71,9.86l12,56.5a8.32,8.32,0,0,0,8.5,6.68,14,14,0,0,0,9.47-4.19l0,0,0,0,48.8-48.42c4-3.89,5.56-9.07,3.9-13.19a8.41,8.41,0,0,0-8-5.19h0l-60.37-8-.46-.06Z"/><path class="cls-2" d="M1373.25,1866.6l96.9,52.22-111.51,60.39,14.61-112.61m0-5a5,5,0,0,0-5,4.36l-14.61,112.6a5,5,0,0,0,5,5.65,4.9,4.9,0,0,0,2.38-.61l111.51-60.38a5,5,0,0,0,0-8.8l-96.9-52.22a5,5,0,0,0-2.37-.6Z"/><path class="cls-2" d="M515,1688.39a5.27,5.27,0,0,1,4.43,2.24l17.31,41.71c1.7,2.64-.49,5.53-3.79,5.53a6.58,6.58,0,0,1-1-.08l-42.53-6.28c-3.29-.55-5.08-3.63-3.44-5.92l25.21-35.44a4.59,4.59,0,0,1,3.79-1.76m0-5h0a9.58,9.58,0,0,0-7.86,3.87l-25.22,35.43a8.23,8.23,0,0,0-.89,8,9.9,9.9,0,0,0,7.58,5.78h.1l42.49,6.27a11.47,11.47,0,0,0,1.75.14,9.43,9.43,0,0,0,8.37-4.72,8.18,8.18,0,0,0-.1-8.06L524,1688.72l-.17-.41-.24-.38a10.28,10.28,0,0,0-8.64-4.54Z"/><path class="cls-3" d="M1286.29,2156.38a3.78,3.78,0,0,1,2,.57l35.73,21.89a3.84,3.84,0,0,1-.28,6.71l-43.4,21.82a3.8,3.8,0,0,1-1.73.42,3.86,3.86,0,0,1-3.79-4.52l7.68-43.71a3.83,3.83,0,0,1,3.79-3.18m0-5h0a8.83,8.83,0,0,0-8.72,7.31l-7.67,43.72a8.83,8.83,0,0,0,12.68,9.43L1326,2190a8.84,8.84,0,0,0,.65-15.44l-35.72-21.9a8.89,8.89,0,0,0-4.62-1.3Z"/><path class="cls-3" d="M630.45,2311.08a3.82,3.82,0,0,1,3.48,2.2l18,37.85a3.84,3.84,0,0,1-3.46,5.49l-.44,0-48.28-5.42a3.85,3.85,0,0,1-2.38-6.45l30.3-32.43a3.79,3.79,0,0,1,2.8-1.22m0-5h0a8.83,8.83,0,0,0-6.45,2.81l-30.3,32.43a8.85,8.85,0,0,0,5.48,14.83l48.27,5.41a8.39,8.39,0,0,0,1,.06,8.84,8.84,0,0,0,8-12.64l-18-37.85a8.77,8.77,0,0,0-8-5.05Z"/></g><g id="Calque_3" data-name="Calque 3"><rect class="cls-3" x="1587" y="834" width="111" height="111" rx="14.35" transform="translate(135.42 1993) rotate(-64.65)"/><rect class="cls-2" x="384.41" y="858.72" width="76.13" height="76.13" rx="14.35" transform="translate(-153.94 90.28) rotate(-10.33)"/><rect class="cls-3" x="424.15" y="776" width="48.12" height="48.12" rx="14.35" transform="translate(-136.18 93.33) rotate(-10.33)"/><rect class="cls-3" x="1571.34" y="363.94" width="48.12" height="48.12" rx="14.35" transform="matrix(0.98, -0.18, 0.18, 0.98, -43.71, 292.33)"/><rect class="cls-3" x="110.44" y="1160.28" width="82.71" height="83.33" rx="14.35" transform="translate(-114.75 20.14) rotate(-5.51)"/><rect class="cls-2" x="1541.41" y="1316.72" width="76.13" height="76.13" rx="14.35" transform="translate(-217.31 305.15) rotate(-10.33)"/><rect class="cls-3" x="1434.15" y="1410" width="48.12" height="48.12" rx="14.35" transform="translate(-233.49 284.69) rotate(-10.33)"/><rect class="cls-3" x="1539.72" y="1946.91" width="79.75" height="79.75" rx="14.35" transform="translate(-958.46 1959.85) rotate(-50.91)"/><path class="cls-2" d="M329.57,1968.85a14.36,14.36,0,0,1,14.1,11.78l8.5,46.66A14.36,14.36,0,0,1,340.63,2044l-46.66,8.5a14.37,14.37,0,0,1-16.69-11.54l-8.51-46.67a14.34,14.34,0,0,1,11.55-16.68l46.66-8.51a14.25,14.25,0,0,1,2.59-.23m0-5h0a19.44,19.44,0,0,0-3.49.31l-46.66,8.51a19.37,19.37,0,0,0-15.57,22.5l8.51,46.66a19.36,19.36,0,0,0,22.5,15.57l46.66-8.51a19.36,19.36,0,0,0,15.57-22.5l-8.51-46.66a19.32,19.32,0,0,0-19-15.88Z"/><rect class="cls-3" x="411.46" y="1756.21" width="83.61" height="83.61" rx="14.35" transform="translate(-1389.44 2004.77) rotate(-82.25)"/><rect class="cls-2" x="471.35" y="1398.86" width="54.43" height="54.43" rx="14.35" transform="translate(-1000.87 1610.37) rotate(-77.74)"/><path class="cls-2" d="M222.25,2625.6l96.9,52.22-111.51,60.39,14.61-112.61m0-5a5,5,0,0,0-5,4.36l-14.61,112.6a5,5,0,0,0,5,5.65,4.9,4.9,0,0,0,2.38-.61l111.51-60.38a5,5,0,0,0,0-8.8l-96.9-52.22a5,5,0,0,0-2.37-.6Z"/><path class="cls-3" d="M367.36,2558.2l29.83-32.87a3.85,3.85,0,0,1,6.3.89L422,2563.8a3.85,3.85,0,0,1-3.83,5.53l-48.34-4.72A3.85,3.85,0,0,1,367.36,2558.2Z"/><path class="cls-3" d="M1732.45,2775.91a3.89,3.89,0,0,1,1.9.5l36.44,20.68a3.84,3.84,0,0,1-.06,6.72l-42.64,23.27a3.8,3.8,0,0,1-1.84.48,3.86,3.86,0,0,1-3.81-4.39l6.2-44a3.84,3.84,0,0,1,3.81-3.31m0-5h0a8.89,8.89,0,0,0-8.76,7.61l-6.2,43.95a8.84,8.84,0,0,0,13,9l42.64-23.27a8.85,8.85,0,0,0,.13-15.46l-36.45-20.68a8.91,8.91,0,0,0-4.36-1.15Z"/><path class="cls-3" d="M321.6,2963.22a3.82,3.82,0,0,1,3.59,2.46l15.16,39.06a3.85,3.85,0,0,1-3.56,5.24,3.68,3.68,0,0,1-.73-.07L288.31,3001a3.84,3.84,0,0,1-1.9-6.6L319,2964.24a3.82,3.82,0,0,1,2.6-1m0-5h0a8.82,8.82,0,0,0-6,2.35L283,2990.7a8.85,8.85,0,0,0,4.38,15.19l47.75,8.93a8.31,8.31,0,0,0,1.65.16,8.85,8.85,0,0,0,8.22-12.05l-15.15-39.06a8.82,8.82,0,0,0-8.26-5.65Z"/><path class="cls-2" d="M1514.65,2388.25l60.77,8.06h.31c4.57,0,5,5.6.63,9.81l-48.82,48.44a9.08,9.08,0,0,1-6,2.79,3.38,3.38,0,0,1-3.61-2.72l-12-56.5c-.86-4.06,4-9.63,8.67-9.87m.2-5-.46,0a14.85,14.85,0,0,0-10.59,6.05,12.28,12.28,0,0,0-2.71,9.86l12,56.5a8.32,8.32,0,0,0,8.5,6.68,14,14,0,0,0,9.47-4.19l0,0,0,0,48.8-48.42c4-3.89,5.56-9.07,3.9-13.19a8.41,8.41,0,0,0-8-5.19h0l-60.37-8-.46-.06Z"/><path class="cls-2" d="M1593.94,3136.48h.19l38.25,8.94c3,.16,3.72,3.79,1.22,6.19l-27.2,27.11a4.63,4.63,0,0,1-3.17,1.38,2.77,2.77,0,0,1-2.79-1.95l-11-36.06c-.78-2.53,1.76-5.61,4.55-5.61m0-5h0a9.81,9.81,0,0,0-7.79,4.08,9,9,0,0,0-1.54,8l11.05,36.05a7.72,7.72,0,0,0,7.57,5.49,9.59,9.59,0,0,0,6.64-2.77l0,0,0,0,27.17-27.08a9.18,9.18,0,0,0,2.5-9.73,7.66,7.66,0,0,0-6.42-5l-37.91-8.87-.43-.1-.45,0Z"/><path class="cls-3" d="M1790.6,3147.22a3.82,3.82,0,0,1,3.59,2.46l15.16,39.06a3.85,3.85,0,0,1-3.56,5.24,3.68,3.68,0,0,1-.73-.07l-47.75-8.94a3.84,3.84,0,0,1-1.9-6.6l32.59-30.13a3.82,3.82,0,0,1,2.6-1m0-5h0a8.86,8.86,0,0,0-6,2.35L1752,3174.7a8.85,8.85,0,0,0,4.38,15.19l47.75,8.93a8.31,8.31,0,0,0,1.65.16,8.85,8.85,0,0,0,8.22-12.05l-15.15-39.06a8.82,8.82,0,0,0-8.26-5.65Z"/><path class="cls-2" d="M271.94,3498.48h.19l38.25,8.94c3,.16,3.72,3.79,1.22,6.19l-27.2,27.11a4.63,4.63,0,0,1-3.17,1.38,2.77,2.77,0,0,1-2.79-1.95l-11.05-36.06c-.78-2.53,1.76-5.61,4.55-5.61m0-5h0a9.81,9.81,0,0,0-7.79,4.08,9,9,0,0,0-1.54,8l11.05,36.05a7.72,7.72,0,0,0,7.57,5.49,9.59,9.59,0,0,0,6.64-2.77l0,0,0,0,27.17-27.08a9.18,9.18,0,0,0,2.5-9.73,7.66,7.66,0,0,0-6.42-5l-37.91-8.87-.43-.1-.45,0Z"/><path class="cls-2" d="M1522.65,3550.25l60.77,8.06h.31c4.57,0,5,5.6.63,9.81l-48.82,48.44a9.08,9.08,0,0,1-6,2.79,3.38,3.38,0,0,1-3.61-2.72l-12-56.5c-.86-4.06,4-9.63,8.67-9.87m.2-5-.46,0a14.85,14.85,0,0,0-10.59,6.05,12.28,12.28,0,0,0-2.71,9.86l12,56.5a8.32,8.32,0,0,0,8.5,6.68,14,14,0,0,0,9.47-4.19l0,0,0,0,48.8-48.42c4-3.89,5.56-9.07,3.9-13.19a8.41,8.41,0,0,0-8-5.19h0l-60.37-8-.46-.06Z"/><path class="cls-2" d="M1429.25,4249.6l96.9,52.22-111.51,60.39,14.61-112.61m0-5a5,5,0,0,0-5,4.36l-14.61,112.6a5,5,0,0,0,5,5.65,4.9,4.9,0,0,0,2.38-.61l111.51-60.38a5,5,0,0,0,0-8.8l-96.9-52.22a5,5,0,0,0-2.37-.6Z"/><path class="cls-2" d="M571,4071.39a5.27,5.27,0,0,1,4.43,2.24l17.31,41.71c1.7,2.64-.49,5.53-3.79,5.53a6.58,6.58,0,0,1-1-.08l-42.53-6.28c-3.29-.55-5.08-3.63-3.44-5.92l25.21-35.44a4.59,4.59,0,0,1,3.79-1.76m0-5h0a9.58,9.58,0,0,0-7.86,3.87l-25.22,35.43a8.23,8.23,0,0,0-.89,8,9.9,9.9,0,0,0,7.58,5.78h.1l42.49,6.27a11.47,11.47,0,0,0,1.75.14,9.43,9.43,0,0,0,8.37-4.72,8.18,8.18,0,0,0-.1-8.06L580,4071.72l-.17-.41-.24-.38a10.28,10.28,0,0,0-8.64-4.54Z"/><path class="cls-3" d="M1342.29,4539.38a3.78,3.78,0,0,1,2,.57l35.73,21.89a3.84,3.84,0,0,1-.28,6.71l-43.4,21.82a3.8,3.8,0,0,1-1.73.42,3.86,3.86,0,0,1-3.79-4.52l7.68-43.71a3.83,3.83,0,0,1,3.79-3.18m0-5h0a8.83,8.83,0,0,0-8.72,7.31l-7.67,43.72a8.83,8.83,0,0,0,12.68,9.43L1382,4573a8.84,8.84,0,0,0,.65-15.44l-35.72-21.9a8.89,8.89,0,0,0-4.62-1.3Z"/><path class="cls-3" d="M686.45,4694.08a3.82,3.82,0,0,1,3.48,2.2l18,37.85a3.84,3.84,0,0,1-3.46,5.49l-.44,0-48.28-5.42a3.85,3.85,0,0,1-2.38-6.45l30.3-32.43a3.79,3.79,0,0,1,2.8-1.22m0-5h0a8.83,8.83,0,0,0-6.45,2.81l-30.3,32.43a8.85,8.85,0,0,0,5.48,14.83l48.27,5.41a8.39,8.39,0,0,0,1,.06,8.84,8.84,0,0,0,8-12.64l-18-37.85a8.78,8.78,0,0,0-8-5.05Z"/><rect class="cls-3" x="1643" y="3217" width="111" height="111" rx="14.35" transform="translate(-1986.1 3406.33) rotate(-64.65)"/><rect class="cls-2" x="440.41" y="3241.72" width="76.13" height="76.13" rx="14.35" transform="translate(-580.29 138.94) rotate(-10.33)"/><rect class="cls-3" x="480.15" y="3159" width="48.12" height="48.12" rx="14.35" transform="translate(-562.54 141.98) rotate(-10.33)"/><rect class="cls-3" x="1627.34" y="2746.94" width="48.12" height="48.12" rx="14.35" transform="translate(-470.07 340.99) rotate(-10.33)"/><rect class="cls-3" x="166.44" y="3543.28" width="82.71" height="83.33" rx="14.35" transform="translate(-343.4 36.54) rotate(-5.51)"/><rect class="cls-2" x="1597.41" y="3699.72" width="76.13" height="76.13" rx="14.35" transform="translate(-643.66 353.8) rotate(-10.33)"/><rect class="cls-3" x="1490.15" y="3793" width="48.12" height="48.12" rx="14.35" transform="translate(-659.84 333.34) rotate(-10.33)"/><rect class="cls-3" x="1595.72" y="4329.91" width="79.75" height="79.75" rx="14.35" transform="translate(-2787.23 2883.58) rotate(-50.91)"/><path class="cls-2" d="M385.57,4351.85a14.36,14.36,0,0,1,14.1,11.78l8.5,46.66A14.36,14.36,0,0,1,396.63,4427l-46.66,8.5a14.37,14.37,0,0,1-16.69-11.54l-8.51-46.67a14.34,14.34,0,0,1,11.55-16.68l46.66-8.51a14.25,14.25,0,0,1,2.59-.23m0-5h0a19.44,19.44,0,0,0-3.49.31l-46.66,8.51a19.36,19.36,0,0,0-15.57,22.5l8.51,46.66a19.36,19.36,0,0,0,22.5,15.57l46.66-8.51a19.36,19.36,0,0,0,15.57-22.5l-8.51-46.66a19.32,19.32,0,0,0-19-15.88Z"/><rect class="cls-3" x="467.46" y="4139.21" width="83.61" height="83.61" rx="14.35" transform="translate(-3702.24 4122.04) rotate(-82.25)"/><rect class="cls-2" x="527.35" y="3781.86" width="54.43" height="54.43" rx="14.35" transform="translate(-3285.39 3541.94) rotate(-77.74)"/><path class="cls-2" d="M500.25,4796.6l96.9,52.22-111.51,60.39,14.61-112.61m0-5a5,5,0,0,0-5,4.36l-14.61,112.6a5,5,0,0,0,5,5.65,4.9,4.9,0,0,0,2.38-.61l111.51-60.38a5,5,0,0,0,0-8.8l-96.9-52.22a5,5,0,0,0-2.37-.6Z"/><rect class="cls-2" x="1639.27" y="3985.36" width="46.87" height="46.87" rx="14.35" transform="translate(-2616.73 3286.64) rotate(-57.89)"/></g></svg>